[   2s] CDP targets: 1
[   2s]   page: file:///C:/Users/runneradmin/.comfy-test-cache/desktop/ComfyUI/resources/desktop-ui/index.html#/desktop-start | ComfyUI
[   3s] Main page: file:///C:/Users/runneradmin/.comfy-test-cache/desktop/ComfyUI/resources/desktop-ui/index.html#/not-supported | ComfyUI
[   3s] Buttons: ['Learn More', 'Report Issue', 'Continue']
[   3s]   wizard: COMFY_TEST_GPU=0 platform=win32 preferred=['CPU']
[   7s]   clicked [BTN|Continue]
[  10s]   url: file:///C:/Users/runneradmin/.comfy-test-cache/desktop/ComfyUI/resources/desktop-ui/index.html#/not-supported -> file:///C:/Users/runneradmin/.comfy-test-cache/desktop/ComfyUI/resources/desktop-ui/index.html#/install
[  10s]   clicked [TILE|CPU]
[  14s]   clicked [BTN|Next]
[  21s]   clicked [BTN|Next]
[  25s]   clicked [BTN|Install]
[  28s]   url: file:///C:/Users/runneradmin/.comfy-test-cache/desktop/ComfyUI/resources/desktop-ui/index.html#/install -> file:///C:/Users/runneradmin/.comfy-test-cache/desktop/ComfyUI/resources/desktop-ui/index.html#/server-start
[ 150s]   /system_stats up after 146s
[ 150s]   app: waiting for backend stability (continuous /system_stats up for 30s)
[ 150s]   app: /system_stats up; awaiting 30s of stability
[ 180s]   app: backend stable for 30s; proceeding
[ 180s]   capturing canvas load...
[ 188s]   post: waiting for Cloud upsell
[ 221s]   post: Cloud upsell not found, skipping
[ 221s]   post: pressed Escape (Cloud upsell fallback)
[ 224s]   post: waiting for Close Templates
[ 235s]   post: Close Templates not found, skipping
[ 235s]   post: pressed Escape (Close Templates fallback)
[ 238s]   post: waiting for Extensions
[ 238s]   post: clicked Extensions via [button[aria-label="Extensions"]:visible]
[ 241s]   ext: node meta = display='HYWM2' publisher='pznodes' version='0.0.10'
[ 244s]   ext: searching "HYWM2"
[ 247s]   ext: clicking HYWM2 by pznodes tile
[ 251s]   ext: scrolling to + opening version selector
[ 254s]   ext: selected 0.0.10
[ 256s]   ext: clicking right-panel Install
[ 257s]   ext: clicked Install (last of 3 visible)
[ 266s]   ext: waiting for "Apply Changes" toast
[ 266s]   ext: clicked Apply Changes
[ 271s]   app: Apply Changes already triggered in-app restart, skipping pkill
[ 276s]   app: relaunching with CDP
[ 276s]   app: waiting for CDP
[ 277s]   app: CDP up after 1s
[ 277s]   app: reconnecting Playwright
[ 279s]   app: attached to http://127.0.0.1:8000/
[ 429s]   app: server ready after 37s
[ 429s]   app: waiting for main canvas (window.app.graph)
[ 429s]   app: canvas ready after 1s (http://127.0.0.1:8000/)
[ 434s]   app: forcing renderer reload to refresh node-pack manifest
[ 437s]   app: canvas re-ready after reload in 2s
[ 440s]   ext: closing Nodes Manager dialog
[ 440s]   ext: dismissing What's New popup
[ 441s]   ext: closed What's New popup
[ 443s]   ext: dismissing Node Pack Issues modal (if present)
[ 443s]   ext: closed Node Pack Issues modal
[ 446s]   ext: opening Templates sidebar
[ 446s]   ext: clicked Templates
[ 450s]   ext: locating "comfyui-hywm2" section in Templates panel
[ 452s]   ext: clicked comfyui-hywm2 section
[ 454s]   ext: fetching comfy-test.toml from https://raw.githubusercontent.com/PozzettiAndrea/ComfyUI-HYWM2/main/comfy-test.toml
[ 454s]   ext: cpu spec = include ['depth_normal']
[ 454s]   ext: picking first matching comfyui-hywm2 template
[ 454s]   ext: 2 visible cards
[ 456s]   ext: clicked template depth_normal
[ 462s]   ext: installing WS execution listener
[ 462s]   ext: clicking Run
[ 462s]   ext: clicked Run
[ 462s]   ext: waiting for execution_success / execution_error
[ 732s]   ext: WS events=120 elapsed=270s
[ 732s]     ws: {'type': 'progress_state', 'ts': 1778491997616}
[ 732s]     ws: {'type': 'progress_state', 'ts': 1778491997619}
[ 732s]     ws: {'type': 'executing', 'ts': 1778491997619}
[ 732s]     ws: {'type': 'progress_state', 'ts': 1778492227244}
[ 732s]     ws: {'type': 'progress_state', 'ts': 1778492227247}
[ 732s]     ws: {'type': 'executing', 'ts': 1778492227247}
[ 732s]     ws: {'type': 'executed', 'ts': 1778492227326}
[ 732s]     ws: {'type': 'progress_state', 'ts': 1778492227329}
[ 732s]     ws: {'type': 'progress_state', 'ts': 1778492227331}
[ 732s]     ws: {'type': 'executing', 'ts': 1778492227331}
[ 732s]     ws: {'type': 'executed', 'ts': 1778492227439}
[ 732s]     ws: {'type': 'progress_state', 'ts': 1778492227452}
[ 732s]     ws: {'type': 'execution_success', 'ts': 1778492227472}
[ 732s]     ws: {'type': 'status', 'ts': 1778492227474}
[ 732s]     ws: {'type': 'executing', 'ts': 1778492227474}
[ 732s]   ext: execution_success after 270s
[ 738s]   ext: fetching comfy-test.toml from https://raw.githubusercontent.com/PozzettiAndrea/ComfyUI-HYWM2/main/comfy-test.toml
[ 738s]   ext: cpu spec = include ['depth_normal']
[ 738s]   loop: spec=include items=['depth_normal'] -> 1 workflow(s) ['depth_normal']
[ 738s]   loop: matching=1 first_ran='depth_normal' remaining=0 -> []
[ 738s] Captured 781 frames
[ 738s] Wrote D:\a\comfy-gpu-ci\comfy-gpu-ci\comfy-test-logs\HYWM2-0923\dev\windows-desktop\results.json (1 workflow(s), sha=71b382152cd7)
ffmpeg version 7.1-essentials_build-www.gyan.dev Copyright (c) 2000-2024 the FFmpeg developers
  built with gcc 14.2.0 (Rev1, Built by MSYS2 project)
  configuration: --enable-gpl --enable-version3 --enable-static --disable-w32threads --disable-autodetect --enable-fontconfig --enable-iconv --enable-gnutls --enable-libxml2 --enable-gmp --enable-bzlib --enable-lzma --enable-zlib --enable-libsrt --enable-libssh --enable-libzmq --enable-avisynth --enable-sdl2 --enable-libwebp --enable-libx264 --enable-libx265 --enable-libxvid --enable-libaom --enable-libopenjpeg --enable-libvpx --enable-mediafoundation --enable-libass --enable-libfreetype --enable-libfribidi --enable-libharfbuzz --enable-libvidstab --enable-libvmaf --enable-libzimg --enable-amf --enable-cuda-llvm --enable-cuvid --enable-dxva2 --enable-d3d11va --enable-d3d12va --enable-ffnvcodec --enable-libvpl --enable-nvdec --enable-nvenc --enable-vaapi --enable-libgme --enable-libopenmpt --enable-libopencore-amrwb --enable-libmp3lame --enable-libtheora --enable-libvo-amrwbenc --enable-libgsm --enable-libopencore-amrnb --enable-libopus --enable-libspeex --enable-libvorbis --enable-librubberband
  libavutil      59. 39.100 / 59. 39.100
  libavcodec     61. 19.100 / 61. 19.100
  libavformat    61.  7.100 / 61.  7.100
  libavdevice    61.  3.100 / 61.  3.100
  libavfilter    10.  4.100 / 10.  4.100
  libswscale      8.  3.100 /  8.  3.100
  libswresample   5.  3.100 /  5.  3.100
  libpostproc    58.  3.100 / 58.  3.100
Input #0, image2, from 'D:\a\comfy-gpu-ci\comfy-gpu-ci\comfy-test-logs\HYWM2-0923\dev\windows-desktop\debug\electron_inspect\frames\frame_%06d.png':
  Duration: 00:02:36.20, start: 0.000000, bitrate: N/A
  Stream #0:0: Video: png, rgb24(pc, gbr/bt709/iec61966-2-1), 1008x681, 5 fps, 5 tbr, 5 tbn
Stream mapping:
  Stream #0:0 -> #0:0 (png (native) -> h264 (libx264))
Press [q] to stop, [?] for help
[libx264 @ 0000014dbe825500] using cpu capabilities: MMX2 SSE2Fast SSSE3 SSE4.2 AVX FMA3 BMI2 AVX2
[libx264 @ 0000014dbe825500] profile High, level 3.1, 4:2:0, 8-bit
[libx264 @ 0000014dbe825500] 264 - core 164 r3192 c24e06c - H.264/MPEG-4 AVC codec - Copyleft 2003-2024 - http://www.videolan.org/x264.html - options: cabac=1 ref=3 deblock=1:0:0 analyse=0x3:0x113 me=hex subme=7 psy=1 psy_rd=1.00:0.00 mixed_ref=1 me_range=16 chroma_me=1 trellis=1 8x8dct=1 cqm=0 deadzone=21,11 fast_pskip=1 chroma_qp_offset=-2 threads=6 lookahead_threads=1 sliced_threads=0 nr=0 decimate=1 interlaced=0 bluray_compat=0 constrained_intra=0 bframes=3 b_pyramid=2 b_adapt=1 b_bias=0 direct=1 weightb=1 open_gop=0 weightp=2 keyint=250 keyint_min=5 scenecut=40 intra_refresh=0 rc_lookahead=40 rc=crf mbtree=1 crf=23.0 qcomp=0.60 qpmin=0 qpmax=69 qpstep=4 ip_ratio=1.40 aq=1:1.00
Output #0, mp4, to 'D:\a\comfy-gpu-ci\comfy-gpu-ci\comfy-test-logs\HYWM2-0923\dev\windows-desktop\debug\electron_inspect\driver.mp4':
  Metadata:
    encoder         : Lavf61.7.100
  Stream #0:0: Video: h264 (avc1 / 0x31637661), yuv420p(tv, unknown/bt709/iec61966-2-1, progressive), 1008x682, q=2-31, 5 fps, 10240 tbn
      Metadata:
        encoder         : Lavc61.19.100 libx264
      Side data:
        cpb: bitrate max/min/avg: 0/0/0 buffer size: 0 vbv_delay: N/A
[vf#0:0 @ 0000014dbe823780] Reconfiguring filter graph because video parameters changed to rgba(pc, gbr), 1008x681
frame=   22 fps=0.0 q=23.0 size=       0KiB time=00:00:04.00 bitrate=   0.1kbits/s speed=7.89x    
[vf#0:0 @ 0000014dbe823780] Reconfiguring filter graph because video parameters changed to rgb24(pc, gbr), 1008x681
frame=   89 fps= 86 q=23.0 size=     256KiB time=00:00:17.40 bitrate= 120.5kbits/s speed=16.8x    
frame=  157 fps=100 q=23.0 size=     512KiB time=00:00:31.00 bitrate= 135.3kbits/s speed=19.7x    
frame=  242 fps=116 q=23.0 size=     512KiB time=00:00:48.00 bitrate=  87.4kbits/s speed=  23x    
[vf#0:0 @ 0000014dbe823780] Reconfiguring filter graph because video parameters changed to rgba(pc, gbr), 1008x681
[vf#0:0 @ 0000014dbe823780] Reconfiguring filter graph because video parameters changed to rgb24(pc, gbr), 1008x681
frame=  305 fps=117 q=23.0 size=     512KiB time=00:01:00.60 bitrate=  69.2kbits/s speed=23.3x    
frame=  360 fps=115 q=23.0 size=    1024KiB time=00:01:11.60 bitrate= 117.2kbits/s speed=22.9x    
frame=  447 fps=123 q=23.0 size=    1024KiB time=00:01:29.00 bitrate=  94.3kbits/s speed=24.5x    
frame=  520 fps=125 q=23.0 size=    1024KiB time=00:01:43.60 bitrate=  81.0kbits/s speed=  25x    
frame=  601 fps=129 q=23.0 size=    1024KiB time=00:01:59.80 bitrate=  70.0kbits/s speed=25.7x    
frame=  685 fps=132 q=23.0 size=    1024KiB time=00:02:16.60 bitrate=  61.4kbits/s speed=26.3x    
[out#0/mp4 @ 0000014dbeb07f00] video:1275KiB audio:0KiB subtitle:0KiB other streams:0KiB global headers:0KiB muxing overhead: 0.778310%
frame=  781 fps=141 q=-1.0 Lsize=    1285KiB time=00:02:35.80 bitrate=  67.6kbits/s speed=28.1x    
[libx264 @ 0000014dbe825500] frame I:11    Avg QP: 7.95  size: 46769
[libx264 @ 0000014dbe825500] frame P:205   Avg QP:14.77  size:  3023
[libx264 @ 0000014dbe825500] frame B:565   Avg QP:22.47  size:   302
[libx264 @ 0000014dbe825500] consecutive B-frames:  2.7%  1.5%  3.1% 92.7%
[libx264 @ 0000014dbe825500] mb I  I16..4: 58.5% 11.4% 30.1%
[libx264 @ 0000014dbe825500] mb P  I16..4:  2.2%  1.7%  2.1%  P16..4:  1.4%  0.4%  0.3%  0.0%  0.0%    skip:91.9%
[libx264 @ 0000014dbe825500] mb B  I16..4:  0.1%  0.1%  0.1%  B16..8:  1.2%  0.2%  0.1%  direct: 0.1%  skip:98.2%  L0:49.2% L1:46.9% BI: 3.8%
[libx264 @ 0000014dbe825500] 8x8 transform intra:21.8% inter:49.9%
[libx264 @ 0000014dbe825500] coded y,uvDC,uvAC intra: 38.0% 15.4% 12.7% inter: 0.5% 0.4% 0.1%
[libx264 @ 0000014dbe825500] i16 v,h,dc,p: 65% 32%  2%  1%
[libx264 @ 0000014dbe825500] i8 v,h,dc,ddl,ddr,vr,hd,vl,hu: 36% 18% 35%  1%  2%  2%  2%  2%  3%
[libx264 @ 0000014dbe825500] i4 v,h,dc,ddl,ddr,vr,hd,vl,hu: 41% 33% 11%  2%  3%  3%  3%  2%  3%
[libx264 @ 0000014dbe825500] i8c dc,h,v,p: 82% 11%  6%  2%
[libx264 @ 0000014dbe825500] Weighted P-Frames: Y:2.9% UV:2.4%
[libx264 @ 0000014dbe825500] ref P L0: 68.7% 10.2% 14.2%  6.2%  0.8%
[libx264 @ 0000014dbe825500] ref B L0: 73.4% 23.6%  2.9%
[libx264 @ 0000014dbe825500] ref B L1: 96.2%  3.8%
[libx264 @ 0000014dbe825500] kb/s:66.84
[ 744s] Wrote D:\a\comfy-gpu-ci\comfy-gpu-ci\comfy-test-logs\HYWM2-0923\dev\windows-desktop\debug\electron_inspect\driver.mp4
ffmpeg version 7.1-essentials_build-www.gyan.dev Copyright (c) 2000-2024 the FFmpeg developers
  built with gcc 14.2.0 (Rev1, Built by MSYS2 project)
  configuration: --enable-gpl --enable-version3 --enable-static --disable-w32threads --disable-autodetect --enable-fontconfig --enable-iconv --enable-gnutls --enable-libxml2 --enable-gmp --enable-bzlib --enable-lzma --enable-zlib --enable-libsrt --enable-libssh --enable-libzmq --enable-avisynth --enable-sdl2 --enable-libwebp --enable-libx264 --enable-libx265 --enable-libxvid --enable-libaom --enable-libopenjpeg --enable-libvpx --enable-mediafoundation --enable-libass --enable-libfreetype --enable-libfribidi --enable-libharfbuzz --enable-libvidstab --enable-libvmaf --enable-libzimg --enable-amf --enable-cuda-llvm --enable-cuvid --enable-dxva2 --enable-d3d11va --enable-d3d12va --enable-ffnvcodec --enable-libvpl --enable-nvdec --enable-nvenc --enable-vaapi --enable-libgme --enable-libopenmpt --enable-libopencore-amrwb --enable-libmp3lame --enable-libtheora --enable-libvo-amrwbenc --enable-libgsm --enable-libopencore-amrnb --enable-libopus --enable-libspeex --enable-libvorbis --enable-librubberband
  libavutil      59. 39.100 / 59. 39.100
  libavcodec     61. 19.100 / 61. 19.100
  libavformat    61.  7.100 / 61.  7.100
  libavdevice    61.  3.100 / 61.  3.100
  libavfilter    10.  4.100 / 10.  4.100
  libswscale      8.  3.100 /  8.  3.100
  libswresample   5.  3.100 /  5.  3.100
  libpostproc    58.  3.100 / 58.  3.100
Input #0, image2, from 'D:\a\comfy-gpu-ci\comfy-gpu-ci\comfy-test-logs\HYWM2-0923\dev\windows-desktop\debug\electron_inspect\frames\frame_%06d.png':
  Duration: 00:01:25.00, start: 0.000000, bitrate: N/A
  Stream #0:0: Video: png, rgb24(pc, gbr/bt709/iec61966-2-1), 1008x681, 5 fps, 5 tbr, 5 tbn
Stream mapping:
  Stream #0:0 -> #0:0 (png (native) -> h264 (libx264))
Press [q] to stop, [?] for help
[libx264 @ 00000164dc5e7f40] using cpu capabilities: MMX2 SSE2Fast SSSE3 SSE4.2 AVX FMA3 BMI2 AVX2
[libx264 @ 00000164dc5e7f40] profile High, level 3.1, 4:2:0, 8-bit
[libx264 @ 00000164dc5e7f40] 264 - core 164 r3192 c24e06c - H.264/MPEG-4 AVC codec - Copyleft 2003-2024 - http://www.videolan.org/x264.html - options: cabac=1 ref=3 deblock=1:0:0 analyse=0x3:0x113 me=hex subme=7 psy=1 psy_rd=1.00:0.00 mixed_ref=1 me_range=16 chroma_me=1 trellis=1 8x8dct=1 cqm=0 deadzone=21,11 fast_pskip=1 chroma_qp_offset=-2 threads=6 lookahead_threads=1 sliced_threads=0 nr=0 decimate=1 interlaced=0 bluray_compat=0 constrained_intra=0 bframes=3 b_pyramid=2 b_adapt=1 b_bias=0 direct=1 weightb=1 open_gop=0 weightp=2 keyint=250 keyint_min=5 scenecut=40 intra_refresh=0 rc_lookahead=40 rc=crf mbtree=1 crf=23.0 qcomp=0.60 qpmin=0 qpmax=69 qpstep=4 ip_ratio=1.40 aq=1:1.00
Output #0, mp4, to 'D:\a\comfy-gpu-ci\comfy-gpu-ci\comfy-test-logs\HYWM2-0923\dev\windows-desktop\videos\depth_normal\driver.mp4':
  Metadata:
    encoder         : Lavf61.7.100
  Stream #0:0: Video: h264 (avc1 / 0x31637661), yuv420p(tv, unknown/bt709/iec61966-2-1, progressive), 1008x682, q=2-31, 5 fps, 10240 tbn
      Metadata:
        encoder         : Lavc61.19.100 libx264
      Side data:
        cpb: bitrate max/min/avg: 0/0/0 buffer size: 0 vbv_delay: N/A
frame=   37 fps=0.0 q=23.0 size=       0KiB time=00:00:07.00 bitrate=   0.1kbits/s speed=13.7x    
frame=  112 fps=109 q=23.0 size=       0KiB time=00:00:22.00 bitrate=   0.0kbits/s speed=21.4x    
frame=  194 fps=126 q=23.0 size=       0KiB time=00:00:38.40 bitrate=   0.0kbits/s speed=24.9x    
frame=  276 fps=133 q=23.0 size=       0KiB time=00:00:54.80 bitrate=   0.0kbits/s speed=26.4x    
frame=  362 fps=140 q=23.0 size=       0KiB time=00:01:12.00 bitrate=   0.0kbits/s speed=27.8x    
[out#0/mp4 @ 00000164dc52ba00] video:198KiB audio:0KiB subtitle:0KiB other streams:0KiB global headers:0KiB muxing overhead: 2.940610%
frame=  425 fps=153 q=-1.0 Lsize=     204KiB time=00:01:24.60 bitrate=  19.7kbits/s speed=30.4x    
[libx264 @ 00000164dc5e7f40] frame I:2     Avg QP: 8.26  size: 65787
[libx264 @ 00000164dc5e7f40] frame P:108   Avg QP:15.75  size:   446
[libx264 @ 00000164dc5e7f40] frame B:315   Avg QP:23.66  size:    70
[libx264 @ 00000164dc5e7f40] consecutive B-frames:  1.2%  0.0%  0.0% 98.8%
[libx264 @ 00000164dc5e7f40] mb I  I16..4: 49.5% 14.6% 35.9%
[libx264 @ 00000164dc5e7f40] mb P  I16..4:  0.1%  0.0%  0.1%  P16..4:  0.3%  0.1%  0.0%  0.0%  0.0%    skip:99.3%
[libx264 @ 00000164dc5e7f40] mb B  I16..4:  0.0%  0.1%  0.0%  B16..8:  0.6%  0.0%  0.0%  direct: 0.0%  skip:99.3%  L0:49.6% L1:48.8% BI: 1.6%
[libx264 @ 00000164dc5e7f40] 8x8 transform intra:21.8% inter:39.6%
[libx264 @ 00000164dc5e7f40] coded y,uvDC,uvAC intra: 42.6% 19.8% 17.7% inter: 0.1% 0.1% 0.0%
[libx264 @ 00000164dc5e7f40] i16 v,h,dc,p: 56% 43%  0%  0%
[libx264 @ 00000164dc5e7f40] i8 v,h,dc,ddl,ddr,vr,hd,vl,hu: 26% 15% 57%  0%  0%  0%  0%  0%  0%
[libx264 @ 00000164dc5e7f40] i4 v,h,dc,ddl,ddr,vr,hd,vl,hu: 42% 35%  9%  2%  2%  2%  3%  2%  3%
[libx264 @ 00000164dc5e7f40] i8c dc,h,v,p: 65% 24%  9%  1%
[libx264 @ 00000164dc5e7f40] Weighted P-Frames: Y:0.0% UV:0.0%
[libx264 @ 00000164dc5e7f40] ref P L0: 65.9%  1.5% 25.1%  7.4%
[libx264 @ 00000164dc5e7f40] ref B L0: 61.7% 34.1%  4.2%
[libx264 @ 00000164dc5e7f40] ref B L1: 90.8%  9.2%
[libx264 @ 00000164dc5e7f40] kb/s:19.01
[ 747s]   videos/depth_normal/driver.mp4 placed (frames 357..781)
[ 747s]   screenshots/depth_normal_executed.png placed
[ 747s]   removed D:\a\comfy-gpu-ci\comfy-gpu-ci\comfy-test-logs\HYWM2-0923\dev\windows-desktop\debug\electron_inspect\frames after successful encode
